<mxfile host="app.diagrams.net" modified="2024-05-09T09:27:22.930Z" agent="Mozilla/5.0 (Windows NT 10.0; Win64; x64) AppleWebKit/537.36 (KHTML, like Gecko) Chrome/124.0.0.0 Safari/537.36" etag="JR-Scmafe3_QZaR2Wu9o" version="24.3.1" type="device">
  <diagram name="Page-1" id="ELjl9gByCZCh_97ISyAW">
    <mxGraphModel dx="2924" dy="2198" grid="1" gridSize="10" guides="1" tooltips="1" connect="1" arrows="1" fold="1" page="1" pageScale="1" pageWidth="850" pageHeight="1100" math="1" shadow="0">
      <root>
        <mxCell id="0" />
        <mxCell id="1" parent="0" />
        <mxCell id="jB6_mRZn_5eLLBD233gM-117" value="" style="rounded=0;whiteSpace=wrap;html=1;fillColor=none;" vertex="1" parent="1">
          <mxGeometry x="-800.5" y="-1010" width="1360.5" height="880" as="geometry" />
        </mxCell>
        <mxCell id="jB6_mRZn_5eLLBD233gM-118" value="" style="shape=cube;whiteSpace=wrap;html=1;boundedLbl=1;backgroundOutline=1;darkOpacity=0.05;darkOpacity2=0.1;size=40;direction=east;flipH=1;fillColor=#f5f5f5;strokeColor=#666666;fontColor=#333333;" vertex="1" parent="1">
          <mxGeometry x="-668.62" y="-621.01" width="70" height="133.75" as="geometry" />
        </mxCell>
        <mxCell id="jB6_mRZn_5eLLBD233gM-119" value="&lt;b&gt;embedding&lt;/b&gt;" style="text;html=1;strokeColor=none;fillColor=none;align=center;verticalAlign=middle;whiteSpace=wrap;rounded=0;" vertex="1" parent="1">
          <mxGeometry x="-673.62" y="-651.01" width="110" height="30" as="geometry" />
        </mxCell>
        <mxCell id="jB6_mRZn_5eLLBD233gM-120" value="64 x 64 x 16" style="text;html=1;strokeColor=none;fillColor=none;align=center;verticalAlign=middle;whiteSpace=wrap;rounded=0;fontStyle=1" vertex="1" parent="1">
          <mxGeometry x="-678.62" y="-478.25" width="99" height="14" as="geometry" />
        </mxCell>
        <mxCell id="jB6_mRZn_5eLLBD233gM-121" value="" style="shape=cube;whiteSpace=wrap;html=1;boundedLbl=1;backgroundOutline=1;darkOpacity=0.05;darkOpacity2=0.1;size=40;direction=east;flipH=1;fillColor=#fff2cc;strokeColor=#d6b656;" vertex="1" parent="1">
          <mxGeometry x="-426.62" y="-941.01" width="49.5" height="133.75" as="geometry" />
        </mxCell>
        <mxCell id="jB6_mRZn_5eLLBD233gM-122" value="64 x 64 x 4" style="text;html=1;strokeColor=none;fillColor=none;align=center;verticalAlign=middle;whiteSpace=wrap;rounded=0;fontStyle=1" vertex="1" parent="1">
          <mxGeometry x="-455.62" y="-798.25" width="99" height="14" as="geometry" />
        </mxCell>
        <mxCell id="jB6_mRZn_5eLLBD233gM-123" value="" style="shape=cube;whiteSpace=wrap;html=1;boundedLbl=1;backgroundOutline=1;darkOpacity=0.05;darkOpacity2=0.1;size=40;direction=east;flipH=1;fillColor=#f8cecc;strokeColor=#b85450;" vertex="1" parent="1">
          <mxGeometry x="-409.12" y="-940" width="42" height="133.75" as="geometry" />
        </mxCell>
        <mxCell id="jB6_mRZn_5eLLBD233gM-124" value="" style="shape=cube;whiteSpace=wrap;html=1;boundedLbl=1;backgroundOutline=1;darkOpacity=0.05;darkOpacity2=0.1;size=40;direction=east;flipH=1;fillColor=#d5e8d4;strokeColor=#82b366;" vertex="1" parent="1">
          <mxGeometry x="-400.62" y="-941.01" width="42" height="133.75" as="geometry" />
        </mxCell>
        <mxCell id="jB6_mRZn_5eLLBD233gM-125" value="" style="shape=cube;whiteSpace=wrap;html=1;boundedLbl=1;backgroundOutline=1;darkOpacity=0.05;darkOpacity2=0.1;size=40;direction=east;flipH=1;fillColor=#fff2cc;strokeColor=#d6b656;" vertex="1" parent="1">
          <mxGeometry x="-427.62" y="-741.01" width="49.5" height="133.75" as="geometry" />
        </mxCell>
        <mxCell id="jB6_mRZn_5eLLBD233gM-126" value="64 x 64 x 4" style="text;html=1;strokeColor=none;fillColor=none;align=center;verticalAlign=middle;whiteSpace=wrap;rounded=0;fontStyle=1" vertex="1" parent="1">
          <mxGeometry x="-455.62" y="-598.25" width="99" height="14" as="geometry" />
        </mxCell>
        <mxCell id="jB6_mRZn_5eLLBD233gM-127" value="" style="shape=cube;whiteSpace=wrap;html=1;boundedLbl=1;backgroundOutline=1;darkOpacity=0.05;darkOpacity2=0.1;size=40;direction=east;flipH=1;fillColor=#f8cecc;strokeColor=#b85450;" vertex="1" parent="1">
          <mxGeometry x="-410.12" y="-740" width="42" height="133.75" as="geometry" />
        </mxCell>
        <mxCell id="jB6_mRZn_5eLLBD233gM-128" value="" style="shape=cube;whiteSpace=wrap;html=1;boundedLbl=1;backgroundOutline=1;darkOpacity=0.05;darkOpacity2=0.1;size=40;direction=east;flipH=1;fillColor=#d5e8d4;strokeColor=#82b366;" vertex="1" parent="1">
          <mxGeometry x="-401.62" y="-741.01" width="42" height="133.75" as="geometry" />
        </mxCell>
        <mxCell id="jB6_mRZn_5eLLBD233gM-129" value="" style="shape=cube;whiteSpace=wrap;html=1;boundedLbl=1;backgroundOutline=1;darkOpacity=0.05;darkOpacity2=0.1;size=40;direction=east;flipH=1;fillColor=#ffe6cc;strokeColor=#d79b00;" vertex="1" parent="1">
          <mxGeometry x="-559.62" y="-620" width="59.5" height="133.75" as="geometry" />
        </mxCell>
        <mxCell id="jB6_mRZn_5eLLBD233gM-130" value="64 x 64 x 8" style="text;html=1;strokeColor=none;fillColor=none;align=center;verticalAlign=middle;whiteSpace=wrap;rounded=0;fontStyle=1" vertex="1" parent="1">
          <mxGeometry x="-579.62" y="-477.24" width="99" height="14" as="geometry" />
        </mxCell>
        <mxCell id="jB6_mRZn_5eLLBD233gM-131" value="" style="shape=cube;whiteSpace=wrap;html=1;boundedLbl=1;backgroundOutline=1;darkOpacity=0.05;darkOpacity2=0.1;size=40;direction=east;flipH=1;fillColor=#f8cecc;strokeColor=#b85450;" vertex="1" parent="1">
          <mxGeometry x="-532.12" y="-618.99" width="42" height="133.75" as="geometry" />
        </mxCell>
        <mxCell id="jB6_mRZn_5eLLBD233gM-132" value="" style="shape=cube;whiteSpace=wrap;html=1;boundedLbl=1;backgroundOutline=1;darkOpacity=0.05;darkOpacity2=0.1;size=40;direction=east;flipH=1;fillColor=#d5e8d4;strokeColor=#82b366;" vertex="1" parent="1">
          <mxGeometry x="-523.62" y="-620" width="42" height="133.75" as="geometry" />
        </mxCell>
        <mxCell id="jB6_mRZn_5eLLBD233gM-133" style="edgeStyle=orthogonalEdgeStyle;rounded=0;orthogonalLoop=1;jettySize=auto;html=1;exitX=0;exitY=0;exitDx=0;exitDy=46.875;exitPerimeter=0;" edge="1" parent="1" source="jB6_mRZn_5eLLBD233gM-134" target="jB6_mRZn_5eLLBD233gM-146">
          <mxGeometry relative="1" as="geometry">
            <Array as="points">
              <mxPoint x="-259.62" y="-881.01" />
            </Array>
          </mxGeometry>
        </mxCell>
        <mxCell id="jB6_mRZn_5eLLBD233gM-134" value="" style="shape=cube;whiteSpace=wrap;html=1;boundedLbl=1;backgroundOutline=1;darkOpacity=0.05;darkOpacity2=0.1;size=40;direction=east;flipH=1;fillColor=#e1d5e7;strokeColor=#9673a6;" vertex="1" parent="1">
          <mxGeometry x="-299.62" y="-941.01" width="40" height="133.75" as="geometry" />
        </mxCell>
        <mxCell id="jB6_mRZn_5eLLBD233gM-135" value="64 x 64 x 1" style="text;html=1;strokeColor=none;fillColor=none;align=center;verticalAlign=middle;whiteSpace=wrap;rounded=0;fontStyle=1" vertex="1" parent="1">
          <mxGeometry x="-338.12" y="-798.25" width="99" height="14" as="geometry" />
        </mxCell>
        <mxCell id="jB6_mRZn_5eLLBD233gM-136" value="" style="shape=cube;whiteSpace=wrap;html=1;boundedLbl=1;backgroundOutline=1;darkOpacity=0.05;darkOpacity2=0.1;size=40;direction=east;flipH=1;fillColor=#e1d5e7;strokeColor=#9673a6;" vertex="1" parent="1">
          <mxGeometry x="-299.62" y="-741.01" width="40" height="133.75" as="geometry" />
        </mxCell>
        <mxCell id="jB6_mRZn_5eLLBD233gM-137" value="64 x 64 x 1" style="text;html=1;strokeColor=none;fillColor=none;align=center;verticalAlign=middle;whiteSpace=wrap;rounded=0;fontStyle=1" vertex="1" parent="1">
          <mxGeometry x="-338.12" y="-598.25" width="99" height="14" as="geometry" />
        </mxCell>
        <mxCell id="jB6_mRZn_5eLLBD233gM-138" value="" style="shape=cube;whiteSpace=wrap;html=1;boundedLbl=1;backgroundOutline=1;darkOpacity=0.05;darkOpacity2=0.1;size=5;direction=east;flipH=1;" vertex="1" parent="1">
          <mxGeometry x="-148.37" y="-680.75" width="16.5" height="15.24" as="geometry" />
        </mxCell>
        <mxCell id="jB6_mRZn_5eLLBD233gM-139" value="AVG" style="shape=trapezoid;perimeter=trapezoidPerimeter;whiteSpace=wrap;html=1;fixedSize=1;rotation=90;size=38;" vertex="1" parent="1">
          <mxGeometry x="-266.87" y="-704.14" width="120" height="60" as="geometry" />
        </mxCell>
        <mxCell id="jB6_mRZn_5eLLBD233gM-140" value="1 x 1 x1" style="text;html=1;strokeColor=none;fillColor=none;align=center;verticalAlign=middle;whiteSpace=wrap;rounded=0;fontStyle=1" vertex="1" parent="1">
          <mxGeometry x="-189.62" y="-658.14" width="99" height="14" as="geometry" />
        </mxCell>
        <mxCell id="jB6_mRZn_5eLLBD233gM-141" value="&lt;br&gt;BROADCAST" style="shape=trapezoid;perimeter=trapezoidPerimeter;whiteSpace=wrap;html=1;fixedSize=1;rotation=-90;size=38;" vertex="1" parent="1">
          <mxGeometry x="-132.62" y="-703.12" width="120" height="60" as="geometry" />
        </mxCell>
        <mxCell id="jB6_mRZn_5eLLBD233gM-142" style="edgeStyle=orthogonalEdgeStyle;rounded=0;orthogonalLoop=1;jettySize=auto;html=1;exitX=0;exitY=0;exitDx=20;exitDy=20;exitPerimeter=0;" edge="1" parent="1" source="jB6_mRZn_5eLLBD233gM-143" target="jB6_mRZn_5eLLBD233gM-146">
          <mxGeometry relative="1" as="geometry">
            <Array as="points">
              <mxPoint x="20.380000000000003" y="-721.01" />
            </Array>
          </mxGeometry>
        </mxCell>
        <mxCell id="jB6_mRZn_5eLLBD233gM-143" value="" style="shape=cube;whiteSpace=wrap;html=1;boundedLbl=1;backgroundOutline=1;darkOpacity=0.05;darkOpacity2=0.1;size=40;direction=east;flipH=1;fillColor=#f5f5f5;strokeColor=#666666;fontColor=#333333;" vertex="1" parent="1">
          <mxGeometry x="-8.119999999999997" y="-741.02" width="40" height="133.75" as="geometry" />
        </mxCell>
        <mxCell id="jB6_mRZn_5eLLBD233gM-144" value="64 x 64 x 1" style="text;html=1;strokeColor=none;fillColor=none;align=center;verticalAlign=middle;whiteSpace=wrap;rounded=0;fontStyle=1" vertex="1" parent="1">
          <mxGeometry x="-40.12" y="-598.25" width="99" height="14" as="geometry" />
        </mxCell>
        <mxCell id="jB6_mRZn_5eLLBD233gM-145" style="edgeStyle=orthogonalEdgeStyle;rounded=0;orthogonalLoop=1;jettySize=auto;html=1;exitX=1;exitY=0.5;exitDx=0;exitDy=0;entryX=1.024;entryY=0.45;entryDx=0;entryDy=0;entryPerimeter=0;" edge="1" parent="1" source="jB6_mRZn_5eLLBD233gM-146" target="jB6_mRZn_5eLLBD233gM-147">
          <mxGeometry relative="1" as="geometry">
            <mxPoint x="80.38" y="-880.792608695652" as="targetPoint" />
          </mxGeometry>
        </mxCell>
        <mxCell id="jB6_mRZn_5eLLBD233gM-146" value="&lt;font style=&quot;font-size: 20px;&quot;&gt;+&lt;/font&gt;" style="ellipse;whiteSpace=wrap;html=1;aspect=fixed;" vertex="1" parent="1">
          <mxGeometry x="0.13000000000000256" y="-901.01" width="40.25" height="40.25" as="geometry" />
        </mxCell>
        <mxCell id="jB6_mRZn_5eLLBD233gM-147" value="" style="shape=cube;whiteSpace=wrap;html=1;boundedLbl=1;backgroundOutline=1;darkOpacity=0.05;darkOpacity2=0.1;size=40;direction=east;flipH=1;fillColor=#f5f5f5;strokeColor=#666666;fontColor=#333333;" vertex="1" parent="1">
          <mxGeometry x="120.38" y="-941.01" width="40" height="133.75" as="geometry" />
        </mxCell>
        <mxCell id="jB6_mRZn_5eLLBD233gM-148" value="64 x 64 x 1" style="text;html=1;strokeColor=none;fillColor=none;align=center;verticalAlign=middle;whiteSpace=wrap;rounded=0;fontStyle=1" vertex="1" parent="1">
          <mxGeometry x="90.88" y="-798.25" width="99" height="14" as="geometry" />
        </mxCell>
        <mxCell id="jB6_mRZn_5eLLBD233gM-149" value="" style="shape=cube;whiteSpace=wrap;html=1;boundedLbl=1;backgroundOutline=1;darkOpacity=0.05;darkOpacity2=0.1;size=40;direction=east;flipH=1;fillColor=#d80073;strokeColor=#A50040;fontColor=#ffffff;" vertex="1" parent="1">
          <mxGeometry x="148.63" y="-911.01" width="4.75" height="12.76" as="geometry" />
        </mxCell>
        <mxCell id="jB6_mRZn_5eLLBD233gM-150" value="" style="shape=cube;whiteSpace=wrap;html=1;boundedLbl=1;backgroundOutline=1;darkOpacity=0.05;darkOpacity2=0.1;size=40;direction=east;flipH=1;fillColor=#d80073;strokeColor=#A50040;fontColor=#ffffff;" vertex="1" parent="1">
          <mxGeometry x="143.88" y="-873.52" width="4.75" height="12.76" as="geometry" />
        </mxCell>
        <mxCell id="jB6_mRZn_5eLLBD233gM-151" value="" style="shape=cube;whiteSpace=wrap;html=1;boundedLbl=1;backgroundOutline=1;darkOpacity=0.05;darkOpacity2=0.1;size=40;direction=east;flipH=1;fillColor=#d80073;strokeColor=#A50040;fontColor=#ffffff;" vertex="1" parent="1">
          <mxGeometry x="126.13" y="-898.25" width="4.75" height="12.76" as="geometry" />
        </mxCell>
        <mxCell id="jB6_mRZn_5eLLBD233gM-152" value="" style="shape=cube;whiteSpace=wrap;html=1;boundedLbl=1;backgroundOutline=1;darkOpacity=0.05;darkOpacity2=0.1;size=40;direction=east;flipH=1;fillColor=#d80073;strokeColor=#A50040;fontColor=#ffffff;" vertex="1" parent="1">
          <mxGeometry x="130.88" y="-841.01" width="4.75" height="12.76" as="geometry" />
        </mxCell>
        <mxCell id="jB6_mRZn_5eLLBD233gM-153" value="" style="shape=cube;whiteSpace=wrap;html=1;boundedLbl=1;backgroundOutline=1;darkOpacity=0.05;darkOpacity2=0.1;size=40;direction=east;flipH=1;fillColor=#fff2cc;strokeColor=#d6b656;" vertex="1" parent="1">
          <mxGeometry x="-438.62" y="-541.01" width="49.5" height="133.75" as="geometry" />
        </mxCell>
        <mxCell id="jB6_mRZn_5eLLBD233gM-154" value="" style="shape=cube;whiteSpace=wrap;html=1;boundedLbl=1;backgroundOutline=1;darkOpacity=0.05;darkOpacity2=0.1;size=40;direction=east;flipH=1;fillColor=#f8cecc;strokeColor=#b85450;" vertex="1" parent="1">
          <mxGeometry x="-421.12" y="-540" width="42" height="133.75" as="geometry" />
        </mxCell>
        <mxCell id="jB6_mRZn_5eLLBD233gM-155" value="" style="shape=cube;whiteSpace=wrap;html=1;boundedLbl=1;backgroundOutline=1;darkOpacity=0.05;darkOpacity2=0.1;size=40;direction=east;flipH=1;fillColor=#d5e8d4;strokeColor=#82b366;" vertex="1" parent="1">
          <mxGeometry x="-412.62" y="-541.01" width="42" height="133.75" as="geometry" />
        </mxCell>
        <mxCell id="jB6_mRZn_5eLLBD233gM-156" value="" style="shape=cube;whiteSpace=wrap;html=1;boundedLbl=1;backgroundOutline=1;darkOpacity=0.05;darkOpacity2=0.1;size=40;direction=east;flipH=1;fillColor=#fff2cc;strokeColor=#d6b656;" vertex="1" parent="1">
          <mxGeometry x="-439.62" y="-341.01" width="49.5" height="133.75" as="geometry" />
        </mxCell>
        <mxCell id="jB6_mRZn_5eLLBD233gM-157" value="" style="shape=cube;whiteSpace=wrap;html=1;boundedLbl=1;backgroundOutline=1;darkOpacity=0.05;darkOpacity2=0.1;size=40;direction=east;flipH=1;fillColor=#f8cecc;strokeColor=#b85450;" vertex="1" parent="1">
          <mxGeometry x="-422.12" y="-340" width="42" height="133.75" as="geometry" />
        </mxCell>
        <mxCell id="jB6_mRZn_5eLLBD233gM-158" value="" style="shape=cube;whiteSpace=wrap;html=1;boundedLbl=1;backgroundOutline=1;darkOpacity=0.05;darkOpacity2=0.1;size=40;direction=east;flipH=1;fillColor=#d5e8d4;strokeColor=#82b366;" vertex="1" parent="1">
          <mxGeometry x="-413.62" y="-341.01" width="42" height="133.75" as="geometry" />
        </mxCell>
        <mxCell id="jB6_mRZn_5eLLBD233gM-159" style="edgeStyle=orthogonalEdgeStyle;rounded=0;orthogonalLoop=1;jettySize=auto;html=1;exitX=0;exitY=0;exitDx=0;exitDy=46.875;exitPerimeter=0;" edge="1" parent="1" source="jB6_mRZn_5eLLBD233gM-160" target="jB6_mRZn_5eLLBD233gM-172">
          <mxGeometry relative="1" as="geometry">
            <Array as="points">
              <mxPoint x="-271.62" y="-481.01" />
            </Array>
          </mxGeometry>
        </mxCell>
        <mxCell id="jB6_mRZn_5eLLBD233gM-160" value="" style="shape=cube;whiteSpace=wrap;html=1;boundedLbl=1;backgroundOutline=1;darkOpacity=0.05;darkOpacity2=0.1;size=40;direction=east;flipH=1;fillColor=#e1d5e7;strokeColor=#9673a6;" vertex="1" parent="1">
          <mxGeometry x="-311.62" y="-541.01" width="40" height="133.75" as="geometry" />
        </mxCell>
        <mxCell id="jB6_mRZn_5eLLBD233gM-161" value="64 x 64 x 1" style="text;html=1;strokeColor=none;fillColor=none;align=center;verticalAlign=middle;whiteSpace=wrap;rounded=0;fontStyle=1" vertex="1" parent="1">
          <mxGeometry x="-350.12" y="-398.25" width="99" height="14" as="geometry" />
        </mxCell>
        <mxCell id="jB6_mRZn_5eLLBD233gM-162" value="" style="shape=cube;whiteSpace=wrap;html=1;boundedLbl=1;backgroundOutline=1;darkOpacity=0.05;darkOpacity2=0.1;size=40;direction=east;flipH=1;fillColor=#e1d5e7;strokeColor=#9673a6;" vertex="1" parent="1">
          <mxGeometry x="-311.62" y="-341.01" width="40" height="133.75" as="geometry" />
        </mxCell>
        <mxCell id="jB6_mRZn_5eLLBD233gM-163" value="64 x 64 x 1" style="text;html=1;strokeColor=none;fillColor=none;align=center;verticalAlign=middle;whiteSpace=wrap;rounded=0;fontStyle=1" vertex="1" parent="1">
          <mxGeometry x="-350.12" y="-198.25" width="99" height="14" as="geometry" />
        </mxCell>
        <mxCell id="jB6_mRZn_5eLLBD233gM-164" value="" style="shape=cube;whiteSpace=wrap;html=1;boundedLbl=1;backgroundOutline=1;darkOpacity=0.05;darkOpacity2=0.1;size=5;direction=east;flipH=1;" vertex="1" parent="1">
          <mxGeometry x="-160.37" y="-280.75" width="16.5" height="15.24" as="geometry" />
        </mxCell>
        <mxCell id="jB6_mRZn_5eLLBD233gM-165" value="AVG" style="shape=trapezoid;perimeter=trapezoidPerimeter;whiteSpace=wrap;html=1;fixedSize=1;rotation=90;size=38;" vertex="1" parent="1">
          <mxGeometry x="-278.87" y="-304.14" width="120" height="60" as="geometry" />
        </mxCell>
        <mxCell id="jB6_mRZn_5eLLBD233gM-166" value="1 x 1 x1" style="text;html=1;strokeColor=none;fillColor=none;align=center;verticalAlign=middle;whiteSpace=wrap;rounded=0;fontStyle=1" vertex="1" parent="1">
          <mxGeometry x="-201.62" y="-258.14" width="99" height="14" as="geometry" />
        </mxCell>
        <mxCell id="jB6_mRZn_5eLLBD233gM-167" value="&lt;br&gt;BROADCAST" style="shape=trapezoid;perimeter=trapezoidPerimeter;whiteSpace=wrap;html=1;fixedSize=1;rotation=-90;size=38;" vertex="1" parent="1">
          <mxGeometry x="-144.62" y="-303.12" width="120" height="60" as="geometry" />
        </mxCell>
        <mxCell id="jB6_mRZn_5eLLBD233gM-168" style="edgeStyle=orthogonalEdgeStyle;rounded=0;orthogonalLoop=1;jettySize=auto;html=1;exitX=0;exitY=0;exitDx=20;exitDy=20;exitPerimeter=0;" edge="1" parent="1" source="jB6_mRZn_5eLLBD233gM-169" target="jB6_mRZn_5eLLBD233gM-172">
          <mxGeometry relative="1" as="geometry">
            <Array as="points">
              <mxPoint x="8.380000000000003" y="-321.01" />
            </Array>
          </mxGeometry>
        </mxCell>
        <mxCell id="jB6_mRZn_5eLLBD233gM-169" value="" style="shape=cube;whiteSpace=wrap;html=1;boundedLbl=1;backgroundOutline=1;darkOpacity=0.05;darkOpacity2=0.1;size=40;direction=east;flipH=1;fillColor=#f5f5f5;strokeColor=#666666;fontColor=#333333;" vertex="1" parent="1">
          <mxGeometry x="-20.119999999999997" y="-341.02" width="40" height="133.75" as="geometry" />
        </mxCell>
        <mxCell id="jB6_mRZn_5eLLBD233gM-170" value="64 x 64 x 1" style="text;html=1;strokeColor=none;fillColor=none;align=center;verticalAlign=middle;whiteSpace=wrap;rounded=0;fontStyle=1" vertex="1" parent="1">
          <mxGeometry x="-52.12" y="-198.25" width="99" height="14" as="geometry" />
        </mxCell>
        <mxCell id="jB6_mRZn_5eLLBD233gM-171" style="edgeStyle=orthogonalEdgeStyle;rounded=0;orthogonalLoop=1;jettySize=auto;html=1;exitX=1;exitY=0.5;exitDx=0;exitDy=0;entryX=1.024;entryY=0.45;entryDx=0;entryDy=0;entryPerimeter=0;" edge="1" parent="1" source="jB6_mRZn_5eLLBD233gM-172" target="jB6_mRZn_5eLLBD233gM-173">
          <mxGeometry relative="1" as="geometry">
            <mxPoint x="68.38" y="-480.792608695652" as="targetPoint" />
          </mxGeometry>
        </mxCell>
        <mxCell id="jB6_mRZn_5eLLBD233gM-172" value="&lt;font style=&quot;font-size: 20px;&quot;&gt;+&lt;/font&gt;" style="ellipse;whiteSpace=wrap;html=1;aspect=fixed;" vertex="1" parent="1">
          <mxGeometry x="-11.869999999999997" y="-501.01" width="40.25" height="40.25" as="geometry" />
        </mxCell>
        <mxCell id="jB6_mRZn_5eLLBD233gM-173" value="" style="shape=cube;whiteSpace=wrap;html=1;boundedLbl=1;backgroundOutline=1;darkOpacity=0.05;darkOpacity2=0.1;size=40;direction=east;flipH=1;fillColor=#f5f5f5;strokeColor=#666666;fontColor=#333333;" vertex="1" parent="1">
          <mxGeometry x="108.38" y="-541.01" width="40" height="133.75" as="geometry" />
        </mxCell>
        <mxCell id="jB6_mRZn_5eLLBD233gM-174" value="64 x 64 x 1" style="text;html=1;strokeColor=none;fillColor=none;align=center;verticalAlign=middle;whiteSpace=wrap;rounded=0;fontStyle=1" vertex="1" parent="1">
          <mxGeometry x="78.88" y="-398.25" width="99" height="14" as="geometry" />
        </mxCell>
        <mxCell id="jB6_mRZn_5eLLBD233gM-175" value="" style="shape=cube;whiteSpace=wrap;html=1;boundedLbl=1;backgroundOutline=1;darkOpacity=0.05;darkOpacity2=0.1;size=40;direction=east;flipH=1;fillColor=#0050ef;strokeColor=#001DBC;fontColor=#ffffff;" vertex="1" parent="1">
          <mxGeometry x="126.13" y="-501.01" width="4.75" height="12.76" as="geometry" />
        </mxCell>
        <mxCell id="jB6_mRZn_5eLLBD233gM-176" value="" style="shape=cube;whiteSpace=wrap;html=1;boundedLbl=1;backgroundOutline=1;darkOpacity=0.05;darkOpacity2=0.1;size=40;direction=east;flipH=1;fillColor=#0050ef;strokeColor=#001DBC;fontColor=#ffffff;" vertex="1" parent="1">
          <mxGeometry x="131.88" y="-473.52" width="4.75" height="12.76" as="geometry" />
        </mxCell>
        <mxCell id="jB6_mRZn_5eLLBD233gM-177" value="Unit Critic Value" style="text;html=1;strokeColor=none;fillColor=none;align=center;verticalAlign=middle;whiteSpace=wrap;rounded=0;fontStyle=1" vertex="1" parent="1">
          <mxGeometry x="84" y="-971.01" width="110" height="30" as="geometry" />
        </mxCell>
        <mxCell id="jB6_mRZn_5eLLBD233gM-178" value="Factory Critic Value" style="text;html=1;strokeColor=none;fillColor=none;align=center;verticalAlign=middle;whiteSpace=wrap;rounded=0;fontStyle=1" vertex="1" parent="1">
          <mxGeometry x="71.75" y="-571.01" width="125" height="30" as="geometry" />
        </mxCell>
        <mxCell id="jB6_mRZn_5eLLBD233gM-179" value="" style="shape=cube;whiteSpace=wrap;html=1;boundedLbl=1;backgroundOutline=1;darkOpacity=0.05;darkOpacity2=0.1;size=7;direction=east;flipH=1;fillColor=#fff2cc;strokeColor=#d6b656;" vertex="1" parent="1">
          <mxGeometry x="370.5" y="-926.06" width="23" height="20" as="geometry" />
        </mxCell>
        <mxCell id="jB6_mRZn_5eLLBD233gM-180" value="" style="shape=cube;whiteSpace=wrap;html=1;boundedLbl=1;backgroundOutline=1;darkOpacity=0.05;darkOpacity2=0.1;size=7;direction=east;flipH=1;fillColor=#f8cecc;strokeColor=#b85450;" vertex="1" parent="1">
          <mxGeometry x="385.5" y="-810.6099999999999" width="3" height="20" as="geometry" />
        </mxCell>
        <mxCell id="jB6_mRZn_5eLLBD233gM-181" value="" style="shape=cube;whiteSpace=wrap;html=1;boundedLbl=1;backgroundOutline=1;darkOpacity=0.05;darkOpacity2=0.1;size=7;direction=east;flipH=1;fillColor=#d5e8d4;strokeColor=#82b366;" vertex="1" parent="1">
          <mxGeometry x="385.5" y="-780.6099999999999" width="3" height="20" as="geometry" />
        </mxCell>
        <mxCell id="jB6_mRZn_5eLLBD233gM-182" value="1x1 Convolutional Layer with spectra norm" style="text;html=1;strokeColor=none;fillColor=none;align=center;verticalAlign=middle;whiteSpace=wrap;rounded=0;fontStyle=1" vertex="1" parent="1">
          <mxGeometry x="404.5" y="-927" width="146" height="23.88" as="geometry" />
        </mxCell>
        <mxCell id="jB6_mRZn_5eLLBD233gM-183" value="Batch Normalization" style="text;html=1;strokeColor=none;fillColor=none;align=left;verticalAlign=middle;whiteSpace=wrap;rounded=0;fontStyle=1" vertex="1" parent="1">
          <mxGeometry x="399.5" y="-813.55" width="138" height="23.88" as="geometry" />
        </mxCell>
        <mxCell id="jB6_mRZn_5eLLBD233gM-184" value="Leaky ReLU activation" style="text;html=1;strokeColor=none;fillColor=none;align=left;verticalAlign=middle;whiteSpace=wrap;rounded=0;fontStyle=1" vertex="1" parent="1">
          <mxGeometry x="399.5" y="-782.49" width="138" height="23.88" as="geometry" />
        </mxCell>
        <mxCell id="jB6_mRZn_5eLLBD233gM-185" value="" style="shape=cube;whiteSpace=wrap;html=1;boundedLbl=1;backgroundOutline=1;darkOpacity=0.05;darkOpacity2=0.1;size=7;direction=east;flipH=1;fillColor=#dae8fc;strokeColor=#6c8ebf;" vertex="1" parent="1">
          <mxGeometry x="385.5" y="-744.73" width="3" height="20" as="geometry" />
        </mxCell>
        <mxCell id="jB6_mRZn_5eLLBD233gM-186" value="Squeeze-and-Excitation" style="text;html=1;strokeColor=none;fillColor=none;align=left;verticalAlign=middle;whiteSpace=wrap;rounded=0;fontStyle=1" vertex="1" parent="1">
          <mxGeometry x="399.5" y="-746.6099999999999" width="138" height="23.88" as="geometry" />
        </mxCell>
        <mxCell id="jB6_mRZn_5eLLBD233gM-187" value="" style="shape=cube;whiteSpace=wrap;html=1;boundedLbl=1;backgroundOutline=1;darkOpacity=0.05;darkOpacity2=0.1;size=7;direction=east;flipH=1;fillColor=#f5f5f5;strokeColor=#666666;fontColor=#333333;" vertex="1" parent="1">
          <mxGeometry x="385.5" y="-706.56" width="3" height="20" as="geometry" />
        </mxCell>
        <mxCell id="jB6_mRZn_5eLLBD233gM-188" value="Value Output" style="text;html=1;strokeColor=none;fillColor=none;align=left;verticalAlign=middle;whiteSpace=wrap;rounded=0;fontStyle=1" vertex="1" parent="1">
          <mxGeometry x="399.5" y="-708.4399999999999" width="138" height="23.88" as="geometry" />
        </mxCell>
        <mxCell id="jB6_mRZn_5eLLBD233gM-189" value="" style="shape=cube;whiteSpace=wrap;html=1;boundedLbl=1;backgroundOutline=1;darkOpacity=0.05;darkOpacity2=0.1;size=7;direction=east;flipH=1;fillColor=#d80073;strokeColor=#A50040;fontColor=#ffffff;" vertex="1" parent="1">
          <mxGeometry x="385.5" y="-672.81" width="3" height="20" as="geometry" />
        </mxCell>
        <mxCell id="jB6_mRZn_5eLLBD233gM-190" value="Unit Positions" style="text;html=1;strokeColor=none;fillColor=none;align=left;verticalAlign=middle;whiteSpace=wrap;rounded=0;fontStyle=1" vertex="1" parent="1">
          <mxGeometry x="399.5" y="-674.6899999999999" width="138" height="23.88" as="geometry" />
        </mxCell>
        <mxCell id="jB6_mRZn_5eLLBD233gM-191" value="" style="shape=cube;whiteSpace=wrap;html=1;boundedLbl=1;backgroundOutline=1;darkOpacity=0.05;darkOpacity2=0.1;size=7;direction=east;flipH=1;fillColor=#0050ef;strokeColor=#001DBC;fontColor=#ffffff;" vertex="1" parent="1">
          <mxGeometry x="385.5" y="-639.92" width="3" height="20" as="geometry" />
        </mxCell>
        <mxCell id="jB6_mRZn_5eLLBD233gM-192" value="Factory Positions" style="text;html=1;strokeColor=none;fillColor=none;align=left;verticalAlign=middle;whiteSpace=wrap;rounded=0;fontStyle=1" vertex="1" parent="1">
          <mxGeometry x="399.5" y="-641.8" width="138" height="23.88" as="geometry" />
        </mxCell>
        <mxCell id="jB6_mRZn_5eLLBD233gM-193" value="" style="shape=cube;whiteSpace=wrap;html=1;boundedLbl=1;backgroundOutline=1;darkOpacity=0.05;darkOpacity2=0.1;size=7;direction=east;flipH=1;" vertex="1" parent="1">
          <mxGeometry x="370.5" y="-853.55" width="23" height="20" as="geometry" />
        </mxCell>
        <mxCell id="jB6_mRZn_5eLLBD233gM-194" value="Scalar Value" style="text;html=1;strokeColor=none;fillColor=none;align=left;verticalAlign=middle;whiteSpace=wrap;rounded=0;fontStyle=1" vertex="1" parent="1">
          <mxGeometry x="404" y="-855.49" width="146" height="23.88" as="geometry" />
        </mxCell>
        <mxCell id="jB6_mRZn_5eLLBD233gM-195" value="" style="shape=cube;whiteSpace=wrap;html=1;boundedLbl=1;backgroundOutline=1;darkOpacity=0.05;darkOpacity2=0.1;size=7;direction=east;flipH=1;fillColor=#f5f5f5;strokeColor=#666666;fontColor=#333333;" vertex="1" parent="1">
          <mxGeometry x="370" y="-997.06" width="23" height="20" as="geometry" />
        </mxCell>
        <mxCell id="jB6_mRZn_5eLLBD233gM-196" value="Embedding Network" style="text;html=1;strokeColor=none;fillColor=none;align=left;verticalAlign=middle;whiteSpace=wrap;rounded=0;fontStyle=1" vertex="1" parent="1">
          <mxGeometry x="404" y="-1000" width="146" height="23.88" as="geometry" />
        </mxCell>
        <mxCell id="jB6_mRZn_5eLLBD233gM-197" value="" style="shape=cube;whiteSpace=wrap;html=1;boundedLbl=1;backgroundOutline=1;darkOpacity=0.05;darkOpacity2=0.1;size=40;direction=east;flipH=1;fillColor=#0050ef;strokeColor=#001DBC;fontColor=#ffffff;" vertex="1" parent="1">
          <mxGeometry x="115.63" y="-450" width="4.75" height="12.76" as="geometry" />
        </mxCell>
        <mxCell id="jB6_mRZn_5eLLBD233gM-198" value="64 x 64 x 4" style="text;html=1;strokeColor=none;fillColor=none;align=center;verticalAlign=middle;whiteSpace=wrap;rounded=0;fontStyle=1" vertex="1" parent="1">
          <mxGeometry x="-459.5" y="-398.25" width="99" height="14" as="geometry" />
        </mxCell>
        <mxCell id="jB6_mRZn_5eLLBD233gM-199" value="64 x 64 x 4" style="text;html=1;strokeColor=none;fillColor=none;align=center;verticalAlign=middle;whiteSpace=wrap;rounded=0;fontStyle=1" vertex="1" parent="1">
          <mxGeometry x="-463.37" y="-198.25" width="99" height="14" as="geometry" />
        </mxCell>
        <mxCell id="jB6_mRZn_5eLLBD233gM-200" value="" style="shape=cube;whiteSpace=wrap;html=1;boundedLbl=1;backgroundOutline=1;darkOpacity=0.05;darkOpacity2=0.1;size=7;direction=east;flipH=1;fillColor=#e1d5e7;strokeColor=#9673a6;" vertex="1" parent="1">
          <mxGeometry x="370" y="-889.1899999999999" width="23" height="20" as="geometry" />
        </mxCell>
        <mxCell id="jB6_mRZn_5eLLBD233gM-201" value="1x1 Convolutional Layer" style="text;html=1;strokeColor=none;fillColor=none;align=left;verticalAlign=middle;whiteSpace=wrap;rounded=0;fontStyle=1" vertex="1" parent="1">
          <mxGeometry x="404" y="-892.13" width="146" height="23.88" as="geometry" />
        </mxCell>
        <mxCell id="jB6_mRZn_5eLLBD233gM-202" value="" style="shape=cube;whiteSpace=wrap;html=1;boundedLbl=1;backgroundOutline=1;darkOpacity=0.05;darkOpacity2=0.1;size=7;direction=east;flipH=1;fillColor=#ffe6cc;strokeColor=#d79b00;" vertex="1" parent="1">
          <mxGeometry x="370" y="-961.9499999999999" width="23" height="20" as="geometry" />
        </mxCell>
        <mxCell id="jB6_mRZn_5eLLBD233gM-203" value="&lt;div style=&quot;text-align: center;&quot;&gt;&lt;span style=&quot;background-color: initial;&quot;&gt;3x3 Convolutional Layer with spectral norm&lt;/span&gt;&lt;/div&gt;" style="text;html=1;strokeColor=none;fillColor=none;align=left;verticalAlign=middle;whiteSpace=wrap;rounded=0;fontStyle=1" vertex="1" parent="1">
          <mxGeometry x="404" y="-962.89" width="146" height="23.88" as="geometry" />
        </mxCell>
      </root>
    </mxGraphModel>
  </diagram>
</mxfile>
